<svg width="18" height="18" viewBox="0 0 18 18" fill="none" xmlns="http://www.w3.org/2000/svg">
<path d="M9 10.25C10.9192 10.25 12.475 8.69419 12.475 6.775C12.475 4.85581 10.9192 3.3 9 3.3C7.08081 3.3 5.525 4.85581 5.525 6.775C5.525 8.69419 7.08081 10.25 9 10.25ZM9 9C7.77117 9 6.775 8.00383 6.775 6.775C6.775 5.54617 7.77117 4.55 9 4.55C10.2288 4.55 11.225 5.54617 11.225 6.775C11.225 8.00383 10.2288 9 9 9Z" fill="black" fill-opacity="0.9"/>
<path d="M9 17.75C13.8325 17.75 17.75 13.8325 17.75 9C17.75 4.16751 13.8325 0.25 9 0.25C4.16751 0.25 0.25 4.16751 0.25 9C0.25 13.8325 4.16751 17.75 9 17.75ZM15.2443 13.1557C13.3435 12.0956 11.2319 11.5 8.99997 11.5C6.76802 11.5 4.65649 12.0956 2.75564 13.1557C1.96238 11.9661 1.5 10.5371 1.5 9C1.5 4.85786 4.85786 1.5 9 1.5C13.1421 1.5 16.5 4.85786 16.5 9C16.5 10.5371 16.0376 11.9662 15.2443 13.1557ZM14.454 14.1482C13.0867 15.5963 11.1489 16.5 9 16.5C6.85112 16.5 4.91332 15.5963 3.54593 14.1482C5.22562 13.247 7.06603 12.75 8.99997 12.75C10.9339 12.75 12.7743 13.247 14.454 14.1482Z" fill="black" fill-opacity="0.9"/>
</svg>
