<svg width="12" height="12" viewBox="0 0 12 12" fill="none" xmlns="http://www.w3.org/2000/svg">
<path d="M2.24674 2C2.24674 0.895431 3.14218 0 4.24675 0H10.0001C11.1046 0 12.0001 0.895431 12.0001 2V8C12.0001 9.10457 11.1046 10 10.0001 10H9.22841V8.66667H10.0001C10.3683 8.66667 10.6667 8.36819 10.6667 8V2C10.6667 1.63181 10.3683 1.33333 10.0001 1.33333H4.24675C3.87856 1.33333 3.58008 1.63181 3.58008 2V2.83333H2.24674V2Z" fill="#2168DE"/>
<path d="M0 4.66667C0 3.5621 0.895431 2.66667 2 2.66667H7.33333C8.4379 2.66667 9.33333 3.5621 9.33333 4.66667V10C9.33333 11.1046 8.4379 12 7.33333 12H2C0.895431 12 0 11.1046 0 10V4.66667ZM2 4C1.63181 4 1.33333 4.29848 1.33333 4.66667V10C1.33333 10.3682 1.63181 10.6667 2 10.6667H7.33333C7.70152 10.6667 8 10.3682 8 10V4.66667C8 4.29848 7.70152 4 7.33333 4H2Z" fill="#2168DE"/>
</svg>
