<svg width="16" height="16" viewBox="0 0 16 16" fill="none" xmlns="http://www.w3.org/2000/svg">
<path d="M13.1883 2.58919C12.3422 1.74306 10.9703 1.74306 10.1242 2.58919L6.39828 6.3151C6.25712 6.45626 6.18665 6.65325 6.20623 6.85192L6.39661 8.78286C6.42781 9.09933 6.67818 9.3497 6.99465 9.3809L8.92559 9.57128C9.12426 9.59086 9.32125 9.52039 9.46241 9.37923L13.1883 5.65332C14.0345 4.80718 14.0345 3.43533 13.1883 2.58919ZM11.067 3.532C11.3924 3.20656 11.9201 3.20656 12.2455 3.532C12.5709 3.85744 12.5709 4.38508 12.2455 4.71051L8.74258 8.21343L7.66984 8.10767L7.56407 7.03492L11.067 3.532Z" fill="#0052D9"/>
<path d="M2 3.99984C2 2.89527 2.89543 1.99984 4 1.99984L7.33333 1.99984V3.33317L4 3.33317C3.63181 3.33317 3.33333 3.63165 3.33333 3.99984L3.33333 11.9998C3.33333 12.368 3.63181 12.6665 4 12.6665H12C12.3682 12.6665 12.6667 12.368 12.6667 11.9998V8.6665L14 8.6665V11.9998C14 13.1044 13.1046 13.9998 12 13.9998L4 13.9998C2.89543 13.9998 2 13.1044 2 11.9998V3.99984Z" fill="#0052D9"/>
</svg>
