<svg width="33" height="32" viewBox="0 0 33 32" fill="none" xmlns="http://www.w3.org/2000/svg">
<mask id="mask0_11409_65150" style="mask-type:alpha" maskUnits="userSpaceOnUse" x="0" y="0" width="33" height="33">
<path d="M0.124733 10.0468L22.953 32.2614H33V0H0.124733V10.0468Z" fill="black"/>
</mask>
<g mask="url(#mask0_11409_65150)">
<path fill-rule="evenodd" clip-rule="evenodd" d="M30 11.9028V3H21.0972V11.9028H30ZM33 0.999999C33 0.447714 32.5523 0 32 0H19.0972C18.545 0 18.0972 0.447715 18.0972 1V13.9028C18.0972 14.455 18.545 14.9028 19.0972 14.9028H32C32.5523 14.9028 33 14.455 33 13.9028V0.999999ZM23.5674 5.46992H27.5303V9.43283H23.5674V5.46992Z" fill="#B3B3B3"/>
<path fill-rule="evenodd" clip-rule="evenodd" d="M12.0972 11.9028V3H3.19441V11.9028H12.0972ZM15.0972 0.999999C15.0972 0.447714 14.6495 0 14.0972 0H1.19441C0.642126 0 0.194412 0.447715 0.194412 1V13.9028C0.194412 14.455 0.642128 14.9028 1.19441 14.9028H14.0972C14.6495 14.9028 15.0972 14.455 15.0972 13.9028V0.999999ZM5.66454 5.46992H9.62744V9.43283H5.66454V5.46992Z" fill="#B3B3B3"/>
<path fill-rule="evenodd" clip-rule="evenodd" d="M30 28.8056V19.9028H21.0972V28.8056H30ZM33 17.9028C33 17.3505 32.5523 16.9028 32 16.9028H19.0972C18.545 16.9028 18.0972 17.3505 18.0972 17.9028V30.8056C18.0972 31.3579 18.545 31.8056 19.0972 31.8056H32C32.5523 31.8056 33 31.3579 33 30.8056V17.9028ZM23.5674 22.3728H27.5303V26.3357H23.5674V22.3728Z" fill="#B3B3B3"/>
<path fill-rule="evenodd" clip-rule="evenodd" d="M12.0972 28.8056V19.9028H3.19441V28.8056H12.0972ZM15.0972 17.9028C15.0972 17.3505 14.6495 16.9028 14.0972 16.9028H1.19441C0.642126 16.9028 0.194412 17.3505 0.194412 17.9028V30.8056C0.194412 31.3579 0.642128 31.8056 1.19441 31.8056H14.0972C14.6495 31.8056 15.0972 31.3579 15.0972 30.8056V17.9028ZM5.66454 22.3728H9.62744V26.3357H5.66454V22.3728Z" fill="#B3B3B3"/>
</g>
</svg>
