<svg xmlns="http://www.w3.org/2000/svg" width="16" height="16" viewBox="0 0 16 16" fill="none">
  <path d="M2 3.33398C2 2.22941 2.89543 1.33398 4 1.33398H12C13.1046 1.33398 14 2.22941 14 3.33398V5.54232H12.6667V3.33398C12.6667 2.96579 12.3682 2.66732 12 2.66732H4C3.63181 2.66732 3.33333 2.96579 3.33333 3.33398V12.0007C3.33333 12.3688 3.63181 12.6673 4 12.6673H7.2381V14.0007H4C2.89543 14.0007 2 13.1052 2 12.0007V3.33398Z" fill="#0052D9"/>
  <path d="M13.8274 12.2184L14.9429 13.3339L14.0001 14.2767L12.8846 13.1613C12.3898 13.4814 11.7999 13.6673 11.1667 13.6673C9.41777 13.6673 8 12.2496 8 10.5007C8 8.75175 9.41777 7.33398 11.1667 7.33398C12.9156 7.33398 14.3333 8.75175 14.3333 10.5007C14.3333 11.1338 14.1475 11.7236 13.8274 12.2184ZM13 10.5007C13 9.48813 12.1792 8.66732 11.1667 8.66732C10.1541 8.66732 9.33333 9.48813 9.33333 10.5007C9.33333 11.5132 10.1541 12.334 11.1667 12.334C12.1792 12.334 13 11.5132 13 10.5007Z" fill="#0052D9"/>
  <path d="M4.66667 5.33398C4.66667 4.96579 4.96514 4.66732 5.33333 4.66732L10.3333 4.66732C10.7015 4.66732 11 4.9658 11 5.33399C11 5.70218 10.7015 6.00065 10.3333 6.00065H5.33333C4.96514 6.00065 4.66667 5.70217 4.66667 5.33398Z" fill="#0052D9"/>
  <path d="M5.33333 7.33398C4.96514 7.33398 4.66667 7.63246 4.66667 8.00065C4.66667 8.36884 4.96514 8.66732 5.33333 8.66732H6.66667C7.03486 8.66732 7.33333 8.36884 7.33333 8.00065C7.33333 7.63246 7.03486 7.33398 6.66667 7.33398H5.33333Z" fill="#0052D9"/>
</svg>