<svg width="13" height="14" viewBox="0 0 13 14" fill="none" xmlns="http://www.w3.org/2000/svg">
<path fill-rule="evenodd" clip-rule="evenodd" d="M2.96577 3.46351C3.71142 2.71786 4.63216 2.25772 5.59528 2.08128L5.35502 0.769775C4.13428 0.993408 2.966 1.57765 2.02296 2.5207C-0.450361 4.99402 -0.450362 9.00406 2.02296 11.4774L0.884887 12.6155H4.10384V9.3965L2.96577 10.5346C1.01315 8.58195 1.01315 5.41613 2.96577 3.46351ZM12.1165 1.38381H8.89758V4.60276L10.0357 3.46469C11.9883 5.41731 11.9883 8.58314 10.0357 10.5358C9.29 11.2814 8.36926 11.7415 7.40614 11.918L7.6464 13.2295C8.86714 13.0059 10.0354 12.4216 10.9785 11.4786C13.4518 9.00525 13.4518 4.9952 10.9785 2.52188L12.1165 1.38381Z" fill="#0052D9"/>
</svg>
