<svg width="13" height="14" viewBox="0 0 13 14" fill="none" xmlns="http://www.w3.org/2000/svg">
<path d="M0 2.33337C0 1.2288 0.895431 0.333374 2 0.333374H10C11.1046 0.333374 12 1.2288 12 2.33337V4.54171H10.6667V2.33337C10.6667 1.96518 10.3682 1.66671 10 1.66671H2C1.63181 1.66671 1.33333 1.96518 1.33333 2.33337V11C1.33333 11.3682 1.63181 11.6667 2 11.6667H5.2381V13H2C0.895429 13 0 12.1046 0 11V2.33337Z" fill="#0052D9"/>
<path d="M11.8274 11.2178L12.9429 12.3333L12.0001 13.2761L10.8846 12.1606C10.3898 12.4808 9.79993 12.6667 9.16667 12.6667C7.41777 12.6667 6 11.2489 6 9.50004C6 7.75114 7.41777 6.33337 9.16667 6.33337C10.9156 6.33337 12.3333 7.75114 12.3333 9.50004C12.3333 10.1332 12.1475 10.723 11.8274 11.2178ZM11 9.50004C11 8.48752 10.1792 7.66671 9.16667 7.66671C8.15414 7.66671 7.33333 8.48752 7.33333 9.50004C7.33333 10.5126 8.15414 11.3334 9.16667 11.3334C10.1792 11.3334 11 10.5126 11 9.50004Z" fill="#0052D9"/>
<path d="M2.66667 4.33337C2.66667 3.96518 2.96514 3.66671 3.33333 3.66671L8.33333 3.66671C8.70152 3.66671 9 3.96518 9 4.33337C9 4.70156 8.70152 5.00004 8.33333 5.00004H3.33333C2.96514 5.00004 2.66667 4.70156 2.66667 4.33337Z" fill="#0052D9"/>
<path d="M3.33333 6.33337C2.96514 6.33337 2.66667 6.63185 2.66667 7.00004C2.66667 7.36823 2.96514 7.66671 3.33333 7.66671H4.66667C5.03486 7.66671 5.33333 7.36823 5.33333 7.00004C5.33333 6.63185 5.03486 6.33337 4.66667 6.33337H3.33333Z" fill="#0052D9"/>
</svg>
